<svg id="Layer_3" data-name="Layer 3" xmlns="http://www.w3.org/2000/svg" viewBox="0 0 274.3 176.5"><defs><style>.cls-1{fill:#231f20;}</style></defs><title>logo</title><path class="cls-1" d="M505.8,206.4c-12,0-26.8,9.3-27.4,23.9-.1,1.8-.2,3.5-.4,5.2a29.65,29.65,0,0,1-1.5,6.7,16.89,16.89,0,0,1-3.2,5.5,14.21,14.21,0,0,1-5.7,3.6,29.61,29.61,0,0,1-9.4,1.2h-7.9v15.1h6.9c8.6,0,17.5-.6,24.4-6.4a31.11,31.11,0,0,0,8.3-11c3.7-8.4.4-20.2,8.6-26.4a17.7,17.7,0,0,1,8.7-3.4,22.75,22.75,0,0,1,2.6-.2V206.4Z" transform="translate(-342.9 -191.8)"/><path class="cls-1" d="M496.9,229.3a8.39,8.39,0,0,0-1,4.4v.5l-.1,33.4,13.4.1.1-36.2a26.81,26.81,0,0,0-1.4-8.7C504.6,223.2,499.6,224.5,496.9,229.3Z" transform="translate(-342.9 -191.8)"/><path class="cls-1" d="M480.5,206.3H479c-21.9.5-28.5,18.1-28.5,29V250h13.3V234.8c-.1-4.7,2.7-11.9,13.5-13a30.44,30.44,0,0,1,12.9-14.1A43.39,43.39,0,0,0,480.5,206.3Z" transform="translate(-342.9 -191.8)"/><path class="cls-1" d="M534.3,206.1h0a1.37,1.37,0,0,0,1.4-1.4V193.2a1.37,1.37,0,0,0-1.4-1.4H523a1.37,1.37,0,0,0-1.4,1.4h0a1.37,1.37,0,0,0,1.4,1.4h9.4a.47.47,0,0,1,.5.5v9.6A1.43,1.43,0,0,0,534.3,206.1Z" transform="translate(-342.9 -191.8)"/><path class="cls-1" d="M436.2,279.5H428a1,1,0,0,1-1-1v-8.9a1.37,1.37,0,0,0-1.4-1.4h0a1.37,1.37,0,0,0-1.4,1.4v11.3a1.37,1.37,0,0,0,1.4,1.4h10.6a1.37,1.37,0,0,0,1.4-1.4h0A1.37,1.37,0,0,0,436.2,279.5Z" transform="translate(-342.9 -191.8)"/><path class="cls-1" d="M534.3,268h0a1.37,1.37,0,0,1,1.4,1.4v11.5a1.37,1.37,0,0,1-1.4,1.4H523a1.37,1.37,0,0,1-1.4-1.4h0a1.37,1.37,0,0,1,1.4-1.4h9.2a.68.68,0,0,0,.7-.7v-9.4A1.43,1.43,0,0,1,534.3,268Z" transform="translate(-342.9 -191.8)"/><path class="cls-1" d="M436.3,194.6h-8.7a.65.65,0,0,0-.6.6v9.4a1.32,1.32,0,0,1-1.3,1.3h-.1a1.32,1.32,0,0,1-1.3-1.3V193.1a1.32,1.32,0,0,1,1.3-1.3h10.7a1.32,1.32,0,0,1,1.3,1.3v.1A1.35,1.35,0,0,1,436.3,194.6Z" transform="translate(-342.9 -191.8)"/><path class="cls-1" d="M342.9,308.8a1,1,0,0,1,1-.9h1.3L367.8,336h.1V309.3a1,1,0,0,1,1-1h1.8a1.08,1.08,0,0,1,1,1V343a1,1,0,0,1-1,.9h-.9l-23-28.7h-.1v27.2a1,1,0,0,1-1,1h-1.8a1.08,1.08,0,0,1-1-1Z" transform="translate(-342.9 -191.8)"/><path class="cls-1" d="M386.9,330.7a15.48,15.48,0,0,1,4.3.7c0-3.7-.4-5.4-3.3-5.4a18.61,18.61,0,0,0-6,1.1.63.63,0,0,1-.9-.5l-.4-1.3c-.2-.6.1-.9.6-1.1a17.82,17.82,0,0,1,7-1.3c5.1,0,6.4,2.6,6.4,8.5v11.1a1.08,1.08,0,0,1-1,1h-.9c-.6,0-.7-.3-.9-.8l-.4-1.4a8.38,8.38,0,0,1-6.2,2.6c-3.5,0-6.2-2.5-6.2-6.6C378.9,333.6,381.7,330.7,386.9,330.7Zm-1.3,10.2a6.87,6.87,0,0,0,5.5-2.8v-4a9.66,9.66,0,0,0-4.2-.8c-2.8,0-4.8,1.4-4.8,4A3.33,3.33,0,0,0,385.6,340.9Z" transform="translate(-342.9 -191.8)"/><path class="cls-1" d="M410.7,322.9a11,11,0,0,1,5.4,1.3V309.3a1,1,0,0,1,.9-1h1.6a1.08,1.08,0,0,1,1,1v33.1a1.08,1.08,0,0,1-1,1h-1.1a1,1,0,0,1-.9-.8l-.3-1.4a8.93,8.93,0,0,1-6.2,2.7c-5.1,0-9.1-4.8-9.1-10.6S404.7,322.9,410.7,322.9Zm-.1,17.9c3.6,0,5.5-3.3,5.5-3.3v-10a10.83,10.83,0,0,0-4.9-1.2c-4.4,0-6.6,3.2-6.6,7.2C404.6,337.3,406.9,340.8,410.6,340.8Z" transform="translate(-342.9 -191.8)"/><path class="cls-1" d="M427.2,311.8a2.37,2.37,0,0,1,2.4-2.4,2.31,2.31,0,0,1,2.4,2.4,2.35,2.35,0,0,1-2.4,2.3A2.29,2.29,0,0,1,427.2,311.8Zm.7,12.6a1.08,1.08,0,0,1,1-1h1.5a1.08,1.08,0,0,1,1,1v18.1a1.08,1.08,0,0,1-1,1h-1.5a1.08,1.08,0,0,1-1-1Z" transform="translate(-342.9 -191.8)"/><path class="cls-1" d="M439.7,324.4a1.08,1.08,0,0,1,1-1h.9a.7.7,0,0,1,.8.6l.4,1.5a11.44,11.44,0,0,1,7-2.6c5.8,0,7.8,3.8,7.8,9v10.6a1,1,0,0,1-.9,1h-1.6a1.08,1.08,0,0,1-1-1V331.9c0-3.8-1.7-5.7-4.5-5.7a9.83,9.83,0,0,0-6.5,2.9v13.4a1.08,1.08,0,0,1-1,1h-1.5a1.08,1.08,0,0,1-1-1V324.4Z" transform="translate(-342.9 -191.8)"/><path class="cls-1" d="M474.1,322.9a8.85,8.85,0,0,1,9.1,9.2c0,.3-.1,1-.1,1.3a1,1,0,0,1-.9.9H467.8a7.1,7.1,0,0,0,6.7,6.5,9.17,9.17,0,0,0,4.9-1.5c.7-.4,1-.6,1.4-.1a4.81,4.81,0,0,0,.9,1.1c.3.5.5.8-.2,1.3a12.14,12.14,0,0,1-7.4,2.3c-6.1,0-9.8-4.8-9.8-10.5S468,322.9,474.1,322.9Zm5.6,8.6a5.85,5.85,0,0,0-5.6-5.5,6.15,6.15,0,0,0-6.3,5.5Z" transform="translate(-342.9 -191.8)"/><path class="cls-1" d="M501.5,338.2c.3-.3.5-.7.8-1,.5-.7,1-1,1.8-.5.3.3,4,3.8,8.5,3.8,4.1,0,6.7-2.5,6.7-5.5,0-3.5-3-5.5-8.8-7.9-5.5-2.4-8.8-4.7-8.8-10.4,0-3.4,2.7-8.9,10.7-8.9a16.86,16.86,0,0,1,8.6,2.5,1.14,1.14,0,0,1,.3,1.7c-.2.3-.4.7-.6,1a1.23,1.23,0,0,1-1.8.5c-.4-.2-3.5-2.3-6.6-2.3-5.3,0-6.9,3.4-6.9,5.5,0,3.3,2.5,5.3,6.8,7,6.8,2.8,11.1,5.3,11.1,11.1,0,5.2-5,9-10.8,9a17.31,17.31,0,0,1-10.6-4C501.4,339.5,500.9,339.1,501.5,338.2Z" transform="translate(-342.9 -191.8)"/><path class="cls-1" d="M529.7,324.4a1.08,1.08,0,0,1,1-1h1a.7.7,0,0,1,.8.6l.5,1.5a9.34,9.34,0,0,1,6.5-2.6c3,0,5.1,1.1,6.4,3.3.3-.2,3.5-3.3,7.5-3.3,5.8,0,7.8,3.8,7.8,9v10.6a1,1,0,0,1-.9,1h-1.6a1.08,1.08,0,0,1-1-1V331.9c0-3.8-1.6-5.7-4.5-5.7a9,9,0,0,0-6.1,2.8,12,12,0,0,1,.3,2.8v10.6a1.08,1.08,0,0,1-1,1h-1.6a1.08,1.08,0,0,1-1-1V331.8c0-3.8-1.7-5.7-4.8-5.7a7.57,7.57,0,0,0-5.7,2.9v13.4a1,1,0,0,1-.9,1h-1.6a1.08,1.08,0,0,1-1-1v-18Z" transform="translate(-342.9 -191.8)"/><path class="cls-1" d="M568.3,311.8a2.35,2.35,0,1,1,2.3,2.3A2.26,2.26,0,0,1,568.3,311.8Zm.7,12.6a1.08,1.08,0,0,1,1-1h1.6a1,1,0,0,1,.9,1v18.1a1,1,0,0,1-.9,1H570a1.08,1.08,0,0,1-1-1Z" transform="translate(-342.9 -191.8)"/><path class="cls-1" d="M582.1,326.4h-2.6a1.08,1.08,0,0,1-1-1v-1.1a.94.94,0,0,1,1-1h2.6v-5.6a1.08,1.08,0,0,1,1-1l1.6-.1a1,1,0,0,1,.9,1v5.7h5.8a.94.94,0,0,1,1,1v1.1a1,1,0,0,1-1,1h-5.8v11.7c0,2,.5,2.4,1.6,2.4a10.82,10.82,0,0,0,3.7-1.1c.8-.4,1-.1,1.2.3l.8,1.3c.4.6.2.9-.3,1.3a12.47,12.47,0,0,1-5.8,1.7c-4,0-4.6-2.4-4.6-5.5V326.4Z" transform="translate(-342.9 -191.8)"/><path class="cls-1" d="M599.2,309.4a1,1,0,0,1,.9-1h1.6a1.08,1.08,0,0,1,1,1v16.2a10.14,10.14,0,0,1,6.7-2.6c5,0,7.8,3.2,7.8,9v10.6a1,1,0,0,1-1,1h-1.6a1.08,1.08,0,0,1-1-1V332c0-3.8-1.7-5.7-4.5-5.7a10,10,0,0,0-6.5,2.8v13.4a1.08,1.08,0,0,1-1,1H600a1,1,0,0,1-.9-1V309.4Z" transform="translate(-342.9 -191.8)"/><path class="cls-1" d="M413.5,366.1a5.58,5.58,0,0,0,.5-.8c.2-.2.4-.3.6-.2a5.58,5.58,0,0,0,3,1.3,1.87,1.87,0,0,0,2.1-1.7c0-1.1-1-1.8-2.9-2.6s-3.5-1.8-3.5-4c0-1.5,1.1-3.5,4.2-3.5a6.77,6.77,0,0,1,3.5,1.1.38.38,0,0,1,.1.6c-.2.2-.3.5-.5.7s-.4.4-.7.2a5.7,5.7,0,0,0-2.6-.9c-1.6,0-2.1,1-2.1,1.7,0,1.1.8,1.7,2.4,2.4,2.2.9,4.1,1.9,4.1,4.2,0,2-1.8,3.6-4.2,3.6a6.17,6.17,0,0,1-4.1-1.5C413.5,366.6,413.3,366.4,413.5,366.1Z" transform="translate(-342.9 -191.8)"/><path class="cls-1" d="M439.7,356.6h-3.1a.43.43,0,0,1-.4-.4v-1.1a.43.43,0,0,1,.4-.4h8.2a.43.43,0,0,1,.4.4v1.1a.43.43,0,0,1-.4.4h-3.1v11a.43.43,0,0,1-.4.4H440a.43.43,0,0,1-.4-.4v-11Z" transform="translate(-342.9 -191.8)"/><path class="cls-1" d="M460.3,355.2a.43.43,0,0,1,.4-.4H462a.43.43,0,0,1,.4.4V363a3.2,3.2,0,1,0,6.4,0v-7.8a.43.43,0,0,1,.4-.4h1.3a.43.43,0,0,1,.4.4v7.9a5,5,0,0,1-5.2,5.1,4.94,4.94,0,0,1-5.1-5.1v-7.9Z" transform="translate(-342.9 -191.8)"/><path class="cls-1" d="M487.5,355.2a.45.45,0,0,1,.3-.4h4.4a6.6,6.6,0,1,1,0,13.2h-4.4c-.2,0-.3-.2-.3-.4Zm4.4,11a4.8,4.8,0,0,0,0-9.6h-2.5v9.6h2.5Z" transform="translate(-342.9 -191.8)"/><path class="cls-1" d="M514.9,355.2a.43.43,0,0,1,.4-.4h1.3a.43.43,0,0,1,.4.4v12.5a.43.43,0,0,1-.4.4h-1.3a.43.43,0,0,1-.4-.4Z" transform="translate(-342.9 -191.8)"/><path class="cls-1" d="M539.7,354.7a6.8,6.8,0,1,1-6.8,6.8A6.74,6.74,0,0,1,539.7,354.7Zm0,11.6a4.9,4.9,0,1,0-4.9-4.9A4.91,4.91,0,0,0,539.7,366.3Z" transform="translate(-342.9 -191.8)"/></svg>